<svg xmlns="http://www.w3.org/2000/svg" viewBox="0 0 24 24" fill="#006bff">
  <path d="M19.655 14.262c.281-.281.457-.421.702-.421.316 0 .632.175.632.562 0 .176-.035.352-.175.563-.807 1.33-2.067 2.313-3.502 2.84-.457.175-.983.281-1.509.281-1.087 0-2.137-.387-3.011-1.087-.491-.386-.878-.877-1.16-1.439-.247-.492-.387-1.019-.422-1.546h-.035c-.035.527-.175 1.054-.422 1.546-.28.562-.667 1.053-1.158 1.439-.878.7-1.93 1.087-3.016 1.087-.526 0-1.052-.106-1.509-.281-1.439-.527-2.69-1.51-3.502-2.84-.14-.211-.175-.387-.175-.563 0-.387.316-.562.632-.562.246 0 .421.14.702.421 1.228 1.228 2.455 1.826 3.853 1.826.983 0 1.93-.352 2.666-1.017.737-.667 1.228-1.58 1.333-2.596.035-.387.035-.773.035-1.16V8.23c0-.387 0-.773-.035-1.16-.105-1.017-.596-1.93-1.333-2.596-.737-.666-1.683-1.018-2.666-1.018-1.398 0-2.625.597-3.853 1.826-.281.282-.456.422-.702.422-.316 0-.632-.176-.632-.562 0-.176.035-.352.175-.563C2.635 3.229 3.891 2.246 5.33 1.72c.457-.176.983-.281 1.509-.281 1.087 0 2.138.387 3.016 1.087.491.387.878.878 1.158 1.44.247.491.387 1.018.422 1.545h.035c.035-.527.175-1.054.422-1.545.282-.562.669-1.053 1.16-1.44.874-.7 1.924-1.087 3.011-1.087.526 0 1.052.105 1.509.281 1.435.527 2.695 1.509 3.502 2.84.14.21.175.387.175.562 0 .386-.316.562-.632.562-.245 0-.421-.14-.702-.422-1.228-1.229-2.454-1.826-3.853-1.826-.983 0-1.929.352-2.666 1.018-.736.666-1.228 1.579-1.333 2.596-.035.387-.035.773-.035 1.16v3.075c0 .387 0 .773.035 1.16.105 1.017.597 1.93 1.333 2.596.737.665 1.683 1.017 2.666 1.017 1.399 0 2.625-.597 3.853-1.826z"/>
</svg>
