<svg xmlns="http://www.w3.org/2000/svg" viewBox="0 0 109.5 124.5" fill="#96bf48">
  <path d="M95.9 23.9c-.1-.6-.6-1-1.1-1-.5 0-9.3-.2-9.3-.2s-7.4-7.2-8.1-7.9c-.7-.7-2.2-.5-2.7-.3 0 0-1.4.4-3.7 1.1-.4-1.3-1-2.8-1.8-4.4-2.6-5-6.5-7.7-11.1-7.7-.3 0-.6 0-1 0-1.6-1.9-3.5-2.8-5.2-2.8-13 0-19.2 16.3-21.2 24.6-5.2 1.6-8.8 2.7-9.3 2.9-2.9.9-3 1-3.3 3.8-.3 2.1-7.9 61-7.9 61l59.1 11.1 32-6.9c0 0-13.3-91.5-13.4-92.3zm-27.3-5.2c-1.8.5-3.8 1.2-5.9 1.8V17c0-3.8-.5-6.9-1.4-9.2 3.5.4 5.8 4.4 7.3 7.9zm-11.2-7c1 2.1 1.6 5.1 1.6 9.2v.9c-3.9 1.2-8.2 2.5-12.5 3.9 2.4-9.3 6.9-13.8 10.9-14zm-5.5-5.2c.7 0 1.4.2 2 .7-5.1 2.4-10.6 8.5-13 20.6-3.5 1.1-6.8 2.1-10 3.1 2.8-9.4 9.3-24.4 21-24.4z"/>
  <path d="M94.8 22.9c-.5 0-9.3-.2-9.3-.2s-7.4-7.2-8.1-7.9c-.3-.3-.6-.4-1-.5l-4.5 92.1 32-6.9-13.4-92.3c-.1-.5-.6-.9-1.1-.9 0 0-.1.6-.6.6z" fill="#5e8e3e"/>
  <path d="M58.8 39.8l-4.4 13.1s-3.8-2.1-8.5-2.1c-6.9 0-7.2 4.3-7.2 5.4 0 5.9 15.5 8.2 15.5 22.1 0 10.9-6.9 18-16.2 18-11.2 0-16.9-7-16.9-7l3-9.9s5.9 5.1 10.9 5.1c3.3 0 4.6-2.6 4.6-4.5 0-7.7-12.7-8.1-12.7-20.8 0-10.7 7.7-21 23.2-21 6 0 8.7 1.6 8.7 1.6z" fill="#fff"/>
</svg>
